<?xml version="1.0" standalone="no"?>
<!DOCTYPE svg PUBLIC "-//W3C//DTD SVG 20010904//EN"
 "http://www.w3.org/TR/2001/REC-SVG-20010904/DTD/svg10.dtd">
<svg version="1.0" xmlns="http://www.w3.org/2000/svg"
 width="4675.000000pt" height="4675.000000pt" viewBox="0 0 4675.000000 4675.000000"
 preserveAspectRatio="xMidYMid meet">

<g transform="translate(0.000000,4675.000000) scale(0.100000,-0.100000)"
fill="#000000" stroke="none">
<path d="M20625 36414 c-91 -23 -150 -66 -188 -138 -22 -41 -22 -46 -27 -736
l-5 -695 -795 -1 c-716 -1 -801 -3 -860 -18 -198 -53 -357 -184 -447 -371 -67
-141 -61 135 -71 -3656 -6 -2069 -5 -3473 0 -3513 11 -84 45 -178 89 -252 52
-85 181 -204 270 -247 156 -77 -61 -70 2424 -77 1227 -4 3324 -9 4660 -11
l2430 -4 81 28 c223 75 403 274 449 494 13 60 16 567 25 3524 7 2343 6 3474 0
3517 -42 258 -243 477 -496 542 -70 18 -112 20 -473 20 -218 0 -574 3 -791 7
l-395 6 0 691 c0 663 -1 693 -19 730 -26 52 -79 104 -130 127 -35 16 -67 19
-210 19 -104 0 -184 -5 -210 -12 -55 -16 -138 -99 -154 -154 -9 -30 -12 -164
-12 -475 0 -239 -3 -545 -7 -681 l-6 -248 -847 0 c-466 0 -1502 3 -2303 7
l-1457 6 0 686 0 686 -24 50 c-28 59 -76 107 -131 131 -31 14 -73 18 -195 20
-85 2 -164 0 -175 -2z m-329 -4015 c377 -66 664 -357 725 -733 7 -47 10 -118
6 -184 -24 -447 -373 -798 -823 -829 -455 -30 -864 308 -925 766 -54 406 190
803 576 940 135 48 308 64 441 40z m6644 -19 c144 -41 282 -122 386 -225 282
-282 339 -714 141 -1064 -50 -88 -177 -227 -260 -283 -80 -55 -187 -104 -282
-129 -64 -18 -108 -22 -220 -22 -160 0 -247 18 -374 78 -594 282 -681 1102
-159 1495 115 87 246 145 386 170 83 15 298 4 382 -20z m1448 -3152 l3 -128
-4911 0 -4910 0 0 130 0 130 4908 -2 4907 -3 3 -127z"/>
<path d="M16259 32342 c-60 -31 -114 -94 -128 -150 -6 -22 -11 -585 -12 -1417
-3 -1377 -3 -1380 17 -1425 26 -57 100 -125 150 -139 26 -7 221 -11 562 -11
l522 0 0 1585 0 1585 -529 0 -529 0 -53 -28z"/>
<path d="M29590 30785 l0 -1585 478 -2 c262 -1 501 -1 531 1 107 5 197 75 226
175 22 72 23 2788 1 2840 -19 46 -72 104 -120 129 -41 22 -47 22 -578 25
l-538 3 0 -1586z"/>
<path d="M29975 26201 c-50 -23 -108 -84 -132 -136 -17 -38 -18 -214 -27
-3729 -6 -2837 -6 -3698 4 -3728 15 -52 84 -126 139 -151 42 -18 78 -19 825
-25 713 -4 786 -3 839 12 67 19 127 69 160 130 l22 41 6 1830 c3 1007 7 2675
8 3708 1 1591 -1 1883 -13 1911 -24 57 -83 113 -142 136 -53 20 -73 20 -852
20 -756 0 -799 -1 -837 -19z"/>
<path d="M17939 26159 c-74 -10 -160 -41 -227 -81 -76 -46 -175 -155 -217
-238 -70 -139 -64 194 -75 -3986 -12 -4181 -16 -3863 50 -3998 80 -162 237
-286 407 -321 66 -14 2523 -23 9478 -37 l1420 -3 80 28 c151 54 269 153 340
288 75 143 68 -55 76 2279 3 1152 7 2871 8 3820 1 1916 6 1775 -67 1914 -46
89 -154 199 -239 244 -34 18 -96 41 -138 52 -74 19 -171 20 -4423 29 -2391 6
-4813 12 -5382 14 -569 2 -1060 0 -1091 -4z m10026 -1274 c159 -76 256 -259
226 -426 -23 -133 -107 -246 -226 -305 -55 -27 -69 -29 -170 -29 -104 0 -114
2 -176 32 -82 41 -150 111 -192 201 -29 61 -32 76 -32 162 0 86 3 101 31 161
38 79 87 136 155 179 75 49 121 60 229 57 80 -3 104 -8 155 -32z m-1762 -766
c183 -38 344 -183 408 -369 l22 -65 -2 -1665 c-1 -1000 -6 -1691 -12 -1730
-22 -151 -139 -315 -274 -387 -129 -68 -9 -63 -1697 -63 -840 0 -1528 3 -1528
7 0 4 546 555 1213 1223 1315 1317 1258 1255 1314 1425 23 71 26 96 26 215 0
119 -3 144 -26 215 -37 113 -90 198 -177 285 -130 130 -279 197 -460 207 -129
8 -236 -14 -360 -74 l-95 -45 -1725 -1724 -1725 -1724 -282 0 c-313 0 -352 5
-463 58 -142 67 -256 213 -290 374 -10 44 -12 424 -7 1730 5 1538 7 1677 22
1728 59 188 186 319 375 382 53 18 147 18 2873 13 1961 -4 2833 -9 2870 -16z
m1657 -300 c168 -27 301 -161 331 -333 30 -175 -64 -351 -228 -429 -62 -29
-76 -32 -168 -32 -92 0 -106 3 -167 32 -88 41 -160 113 -201 201 -28 61 -31
76 -31 162 0 124 24 187 102 271 77 83 162 124 287 138 6 0 39 -4 75 -10z"/>
<path d="M15075 26121 c-51 -24 -109 -84 -131 -136 -15 -36 -17 -338 -26
-3720 -7 -2704 -7 -3692 1 -3723 17 -62 69 -123 131 -154 l55 -27 805 -2 c746
-3 808 -1 845 15 50 21 100 69 128 121 l22 40 6 1395 c3 767 8 2437 10 3710
l4 2315 -22 41 c-12 22 -38 57 -59 77 -72 69 -38 67 -928 67 -759 0 -803 -1
-841 -19z"/>
<path d="M15710 18003 c-641 -65 -1224 -420 -1583 -963 -171 -260 -283 -553
-332 -875 -21 -132 -24 -436 -6 -570 66 -498 293 -946 654 -1291 394 -377 925
-594 1455 -594 187 0 322 52 440 168 117 116 170 234 179 397 10 186 -41 319
-172 450 -130 131 -222 169 -455 185 -261 18 -477 113 -643 283 -434 446 -338
1170 198 1490 67 39 137 69 235 99 95 29 319 36 431 13 295 -59 537 -247 669
-519 65 -132 89 -229 100 -402 12 -197 42 -281 145 -407 55 -68 171 -147 262
-178 57 -20 88 -24 193 -24 105 0 136 4 192 23 145 50 272 161 339 297 57 116
72 200 65 364 -36 796 -491 1493 -1201 1842 -316 154 -604 220 -955 217 -96
-1 -191 -3 -210 -5z"/>
<path d="M30700 17974 c-323 -27 -568 -92 -825 -219 -636 -313 -1075 -914
-1180 -1615 -25 -166 -30 -344 -11 -429 61 -285 299 -481 586 -481 333 0 599
266 600 601 0 230 100 474 264 647 124 130 280 223 455 270 80 21 119 25 231
25 168 1 272 -22 415 -92 264 -129 443 -349 516 -636 32 -125 32 -312 1 -439
-24 -97 -90 -246 -143 -322 -56 -82 -169 -193 -254 -249 -157 -105 -301 -151
-520 -165 -211 -14 -312 -55 -437 -180 -148 -147 -206 -341 -163 -545 48 -227
235 -412 465 -461 132 -28 443 -2 665 56 763 200 1366 813 1551 1575 81 333
78 710 -7 1042 -214 838 -927 1479 -1775 1597 -113 16 -355 27 -434 20z"/>
<path d="M20008 16926 c-87 -23 -157 -97 -177 -186 -7 -30 -11 -630 -11 -1775
0 -1654 1 -1732 19 -1770 24 -53 75 -103 131 -129 45 -21 50 -21 1170 -21
l1125 0 40 22 c52 28 99 78 122 128 17 38 18 129 21 1794 l2 1754 -21 43 c-27
57 -98 119 -151 132 -66 17 -2208 24 -2270 8z"/>
<path d="M24519 16918 c-86 -15 -168 -96 -187 -186 -7 -31 -12 -637 -16 -1760
-4 -1450 -2 -1721 10 -1761 18 -61 72 -123 132 -153 l47 -23 1118 -3 1117 -3
50 22 c55 24 113 82 138 138 15 33 17 201 20 1786 l4 1750 -29 55 c-32 61 -94
114 -151 129 -44 12 -2187 20 -2253 9z"/>
<path d="M18965 12388 c-55 -32 -109 -108 -137 -192 l-23 -71 0 -750 c0 -702
1 -753 18 -805 38 -112 111 -192 194 -211 21 -5 772 -9 1691 -9 1848 0 1687
-7 1758 72 41 46 66 98 88 182 22 85 24 1473 2 1553 -29 107 -87 191 -160 231
-29 16 -158 17 -1711 20 l-1680 2 -40 -22z"/>
<path d="M24332 12380 c-71 -37 -127 -120 -158 -233 -20 -74 -33 -1360 -15
-1489 22 -148 96 -270 184 -302 37 -13 256 -15 1697 -19 910 -2 1669 0 1686 5
47 12 107 70 143 137 60 113 61 125 61 893 0 475 -4 714 -11 750 -23 109 -89
212 -157 247 -36 18 -105 19 -1712 26 l-1675 7 -43 -22z"/>
</g>
</svg>
